HIERARCHY
ROOT Hips
{
	OFFSET 0.00000 0.00000 0.00000
	CHANNELS 6 Xposition Yposition Zposition Zrotation Yrotation Xrotation 
	JOINT LHipJoint
	{
		OFFSET 0 0 0
		CHANNELS 3 Zrotation Yrotation Xrotation
		JOINT LeftUpLeg
		{
			OFFSET 1.09156 -1.61406 0.76500
			CHANNELS 3 Zrotation Yrotation Xrotation
			JOINT LeftLeg
			{
				OFFSET 2.33750 -6.42225 0.00000
				CHANNELS 3 Zrotation Yrotation Xrotation
				JOINT LeftFoot
				{
					OFFSET 2.49247 -6.84800 0.00000
					CHANNELS 3 Zrotation Yrotation Xrotation
					JOINT LeftToeBase
					{
						OFFSET 0.15312 -0.42069 1.45461
						CHANNELS 3 Zrotation Yrotation Xrotation
						End Site
						{
							OFFSET 0.00000 -0.00000 0.77046
						}
					}
				}
			}
		}
	}
	JOINT RHipJoint
	{
		OFFSET 0 0 0
		CHANNELS 3 Zrotation Yrotation Xrotation
		JOINT RightUpLeg
		{
			OFFSET -0.99883 -1.61406 0.76500
			CHANNELS 3 Zrotation Yrotation Xrotation
			JOINT RightLeg
			{
				OFFSET -2.36877 -6.50815 0.00000
				CHANNELS 3 Zrotation Yrotation Xrotation
				JOINT RightFoot
				{
					OFFSET -2.53452 -6.96353 0.00000
					CHANNELS 3 Zrotation Yrotation Xrotation
					JOINT RightToeBase
					{
						OFFSET -0.13156 -0.36145 1.63237
						CHANNELS 3 Zrotation Yrotation Xrotation
						End Site
						{
							OFFSET -0.00000 -0.00000 0.84979
						}
					}
				}
			}
		}
	}
	JOINT LowerBack
	{
		OFFSET 0 0 0
		CHANNELS 3 Zrotation Yrotation Xrotation
		JOINT Spine
		{
			OFFSET -0.02431 1.98242 -0.13616
			CHANNELS 3 Zrotation Yrotation Xrotation
			JOINT Spine1
			{
				OFFSET 0.03629 1.98974 -0.02954
				CHANNELS 3 Zrotation Yrotation Xrotation
				JOINT Neck
				{
					OFFSET 0 0 0
					CHANNELS 3 Zrotation Yrotation Xrotation
					JOINT Neck1
					{
						OFFSET 0.09349 1.40783 0.22333
						CHANNELS 3 Zrotation Yrotation Xrotation
						JOINT Head
						{
							OFFSET -0.04273 1.44500 -0.06495
							CHANNELS 3 Zrotation Yrotation Xrotation
							End Site
							{
								OFFSET -0.02251 1.44600 -0.04544
							}
						}
					}
				}
				JOINT LeftShoulder
				{
					OFFSET 0 0 0
					CHANNELS 3 Zrotation Yrotation Xrotation
					JOINT LeftArm
					{
						OFFSET 3.49137 0.85126 -0.29740
						CHANNELS 3 Zrotation Yrotation Xrotation
						JOINT LeftForeArm
						{
							OFFSET 5.06035 -0.00000 0.00000
							CHANNELS 3 Zrotation Yrotation Xrotation
							JOINT LeftHand
							{
								OFFSET 3.14780 -0.00000 0.00000
								CHANNELS 3 Zrotation Yrotation Xrotation
								JOINT LeftFingerBase
								{
									OFFSET 0 0 0
									CHANNELS 3 Zrotation Yrotation Xrotation
									JOINT LeftHandIndex1
									{
										OFFSET 0.60675 -0.00000 0.00000
										CHANNELS 3 Zrotation Yrotation Xrotation
										End Site
										{
											OFFSET 0.48918 -0.00000 0.00000
										}
									}
								}
								JOINT LThumb
								{
									OFFSET 0 0 0
									CHANNELS 3 Zrotation Yrotation Xrotation
									End Site
									{
										OFFSET 0.49664 -0.00000 0.49664
									}
								}
							}
						}
					}
				}
				JOINT RightShoulder
				{
					OFFSET 0 0 0
					CHANNELS 3 Zrotation Yrotation Xrotation
					JOINT RightArm
					{
						OFFSET -3.28101 0.69707 0.00747
						CHANNELS 3 Zrotation Yrotation Xrotation
						JOINT RightForeArm
						{
							OFFSET -5.12273 -0.00000 -0.00000
							CHANNELS 3 Zrotation Yrotation Xrotation
							JOINT RightHand
							{
								OFFSET -3.42200 -0.00000 0.00000
								CHANNELS 3 Zrotation Yrotation Xrotation
								JOINT RightFingerBase
								{
									OFFSET 0 0 0
									CHANNELS 3 Zrotation Yrotation Xrotation
									JOINT RightHandIndex1
									{
										OFFSET -0.70460 -0.00000 0.00000
										CHANNELS 3 Zrotation Yrotation Xrotation
										End Site
										{
											OFFSET -0.56807 -0.00000 0.00000
										}
									}
								}
								JOINT RThumb
								{
									OFFSET 0 0 0
									CHANNELS 3 Zrotation Yrotation Xrotation
									End Site
									{
										OFFSET -0.57674 -0.00000 0.57674
									}
								}
							}
						}
					}
				}
			}
		}
	}
}
MOTION
Frames: 13
Frame Time: .0083333
10.5790 16.0581 0.1191 620.0430 85.0987 622.8140 0.0000 0.0000 0.0000 -12.7302 -6.6032 -31.8480 4.4461 12.7315 38.3715 1.5635 -2.0904 -23.0648 4.8724 13.2387 40.2687 0.0000 0.0000 0.0000 28.5179 -2.3062 1.3156 -1.0751 -6.5908 18.5087 -1.3879 0.7953 -22.0370 -0.0507 1.4530 -3.9963 1.6857 -0.8888 -2.8765 2.0221 -1.2705 0.5389 1.0709 -0.6172 2.1751 4.2921 2.0834 -10.3175 -0.8198 2.2658 5.1041 -0.8913 1.1813 3.5708 0.0000 -0.0000 0.0000 -91.4116 2.1739 -59.0229 3.8383 -6.6137 -0.2219 -0.0000 -0.0000 63.9709 15.8356 46.1671 11.5636 -7.1250 0.0000 -0.0000 -41.4070 73.8042 -29.4406 0.0000 -0.0000 0.0000 89.0521 14.4572 19.6030 -16.0426 25.5784 -3.6644 0.0000 0.0000 0.1252 -24.9875 33.2156 -14.3213 7.1250 -0.0000 -0.0000 4.0253 5.7849 4.4210
10.7741 16.0456 0.1068 624.7760 84.8194 627.5910 0.0000 0.0000 0.0000 -12.1208 -7.1616 -32.3655 4.0501 12.2267 36.5389 1.5488 -1.4091 -23.1270 4.9027 13.2734 40.4007 0.0000 0.0000 0.0000 28.7530 -2.8674 2.7038 -0.9065 -6.0674 16.9802 -1.3502 0.9931 -21.6725 -0.0636 1.6275 -4.4773 2.1287 -0.7409 -2.8450 2.0911 -1.0861 0.5169 0.9031 -0.5190 2.1267 4.1054 2.0599 -10.1974 -0.8066 2.2648 4.9743 -0.8543 1.1760 3.4977 -0.0000 -0.0000 0.0000 -91.2629 2.9460 -64.7187 3.8742 -6.6748 -0.2260 -0.0000 -0.0000 68.2552 15.9051 46.4291 11.6651 -7.1250 0.0000 -0.0000 -42.0436 74.0044 -30.0984 -0.0000 -0.0000 0.0000 89.1223 15.7261 19.8531 -16.4232 26.0911 -3.8302 0.0000 0.0000 0.1333 -24.8590 33.9913 -14.5218 7.1250 -0.0000 -0.0000 4.2346 6.5485 4.7021
10.9661 16.0376 0.0959 629.8470 84.8727 632.8840 0.0000 0.0000 0.0000 -11.8516 -7.7430 -33.0088 3.6744 11.7140 34.7276 1.4935 -0.8294 -22.8649 4.9423 13.3186 40.5730 0.0000 0.0000 0.0000 28.5864 -3.1583 3.9785 -0.7428 -5.5056 15.3564 -1.2850 1.2322 -21.0650 -0.0598 1.5782 -4.3414 2.2172 -0.5679 -3.0853 1.9995 -0.8681 0.5589 0.7669 -0.4078 2.3021 4.0184 1.9557 -10.4019 -0.7007 2.1195 5.1404 -0.8118 1.1084 3.5887 -0.0000 -0.0000 0.0000 -90.9376 3.6412 -70.4095 3.9326 -6.7744 -0.2328 -0.0000 -0.0000 72.4874 15.7544 46.6372 11.5907 -7.1250 0.0000 -0.0000 -42.7651 74.0847 -30.7268 -0.0000 -0.0000 0.0000 89.3057 16.6408 20.5483 -17.3471 27.3131 -4.2454 0.0000 -0.0000 -0.3498 -25.1135 34.3393 -14.8103 7.1250 -0.0000 -0.0000 4.1590 6.9670 4.6443
11.1598 16.0296 0.0871 635.7610 84.9219 639.0260 0.0000 0.0000 0.0000 -11.5368 -8.3446 -33.5591 3.3203 11.1963 32.9448 1.4511 -0.6046 -22.5998 5.1079 13.5043 41.2868 0.0000 0.0000 0.0000 28.4136 -3.2126 5.3976 -0.5883 -4.9107 13.6542 -1.2156 1.2213 -20.4781 -0.0432 1.3408 -3.6871 2.2534 -0.3876 -3.4264 1.8789 -0.6440 0.6632 0.6314 -0.2929 2.6000 4.0770 2.0201 -10.6286 -0.8231 2.1981 4.9446 -0.8568 1.1411 3.5697 -0.0000 0.0000 0.0000 -90.5142 4.0389 -76.1437 4.0343 -6.9476 -0.2450 -0.0000 -0.0000 76.7076 15.0717 47.1782 11.1731 -7.1250 0.0000 -0.0000 -44.9446 74.1743 -32.5156 -0.0000 0.0000 0.0000 89.5457 17.6204 21.3070 -18.2487 28.4745 -4.6672 0.0000 -0.0000 -0.8644 -26.2347 34.2368 -15.4967 7.1250 -0.0000 -0.0000 3.5283 7.1445 3.9468
11.3588 16.0175 0.0763 642.2010 84.5893 645.4680 0.0000 0.0000 0.0000 -10.8032 -8.9714 -33.7671 2.9869 10.6739 31.1877 1.4224 -0.3436 -22.4538 5.3136 13.7285 42.1604 0.0000 0.0000 0.0000 28.5397 -3.3577 7.1075 -0.4476 -4.2923 11.9006 -1.1378 0.9163 -19.8839 -0.1340 2.3593 -6.4997 2.5951 -0.2009 -3.5276 1.8698 -0.4153 0.7418 0.4433 -0.1716 2.7369 4.1093 2.0304 -10.4181 -0.9957 2.2310 4.6489 -0.9190 1.1479 3.4295 -0.0000 0.0000 0.0000 -90.1737 4.4488 -81.9792 4.2324 -7.2846 -0.2695 -0.0000 -0.0000 80.8412 14.5071 47.6950 10.8334 -7.1250 0.0000 -0.0000 -46.9641 74.2780 -34.2156 -0.0000 0.0000 0.0000 89.6826 18.3754 22.3024 -19.1110 29.5564 -5.0855 0.0000 -0.0000 -1.5742 -27.0582 34.3031 -16.0598 7.1250 -0.0000 -0.0000 3.0927 7.4267 3.4713
11.5583 16.0048 0.0639 648.4080 84.2860 651.6290 0.0000 0.0000 0.0000 -10.0910 -9.7899 -33.8138 2.6855 10.1676 29.5212 1.3667 0.1172 -22.1587 5.6191 14.0488 43.4331 0.0000 0.0000 0.0000 28.4907 -3.5441 8.9869 -0.3103 -3.5810 9.9007 -1.0537 0.8687 -19.1343 -0.1506 2.5008 -6.8918 2.8482 0.0130 -3.4693 1.8178 -0.1379 0.7545 0.2644 -0.0289 2.7197 4.1765 2.0067 -10.2966 -1.0838 2.2024 4.5342 -0.9626 1.1304 3.3679 -0.0000 0.0000 0.0000 -89.8772 5.1545 -87.7402 4.4363 -7.6308 -0.2960 -0.0000 -0.0000 84.8464 14.8069 47.7672 11.0741 -7.1250 0.0000 -0.0000 -46.9065 74.4342 -34.3103 -0.0000 0.0000 0.0000 89.8245 18.9280 23.1567 -20.0080 30.6520 -5.5354 0.0000 -0.0000 -2.1956 -27.2940 34.5972 -16.3301 7.1250 -0.0000 -0.0000 3.0232 7.7919 3.4097
11.7565 15.9937 0.0510 655.4720 84.2558 658.7530 0.0000 0.0000 0.0000 -9.6566 -10.8401 -33.8611 2.4243 9.6989 28.0072 1.2963 0.6636 -21.7743 5.8430 14.2745 44.3484 0.0000 0.0000 0.0000 28.0276 -3.4699 11.1468 -0.1725 -2.6756 7.3770 -0.9399 0.9735 -18.0227 -0.2351 3.1208 -8.6152 2.7362 0.2516 -3.4578 1.6578 0.1881 0.7187 0.1810 0.1312 2.6817 4.3524 2.0169 -10.3689 -1.3048 2.2052 4.4211 -1.0669 1.1247 3.3502 0.0000 0.0000 0.0000 -89.6111 6.1372 -93.3984 4.5823 -7.8782 -0.3157 -0.0000 -0.0000 88.8358 14.9708 47.6834 11.1847 -7.1250 0.0000 -0.0000 -46.5085 74.4459 -34.0014 0.0000 0.0000 0.0000 90.0434 19.5052 23.6028 -20.8658 31.6714 -5.9793 0.0000 -0.0000 -2.6088 -27.4824 34.8664 -16.5607 7.1250 -0.0000 -0.0000 2.9758 8.1191 3.3705
11.9516 15.9827 0.0398 662.4920 84.1193 665.8440 0.0000 0.0000 0.0000 -9.0334 -12.1425 -33.8015 2.1984 9.2676 26.6360 1.2249 1.4625 -21.4865 5.7543 14.1859 43.9874 0.0000 0.0000 0.0000 27.5274 -3.5453 13.8163 -0.0459 -1.3831 3.8036 -0.7671 1.1817 -16.1900 -0.2798 3.4023 -9.4008 2.5586 0.4777 -3.5269 1.5534 0.4951 0.7332 0.1914 0.2818 2.7399 4.5422 2.0451 -10.4788 -1.6488 2.2363 4.3599 -1.2132 1.1282 3.3618 0.0000 -0.0000 0.0000 -89.4714 7.0980 -99.1101 4.7347 -8.1362 -0.3369 -0.0000 -0.0000 92.9800 14.9405 47.2451 11.0854 -7.1250 0.0000 -0.0000 -45.2594 74.1667 -32.7581 0.0000 -0.0000 0.0000 90.1945 20.2454 24.0251 -21.5998 32.5218 -6.3694 0.0000 -0.0000 -3.0882 -27.4994 35.2289 -16.7139 7.1250 -0.0000 -0.0000 3.0411 8.4962 3.4616
12.1508 15.9706 0.0294 667.3700 83.8770 670.6950 0.0000 0.0000 0.0000 -8.1585 -13.7614 -33.5209 2.0149 8.8970 25.4737 1.1663 2.2536 -21.3271 5.7412 14.1727 43.9339 0.0000 0.0000 0.0000 27.1284 -3.8204 16.6678 0.0000 -0.0000 0.0000 -0.5981 1.4673 -14.1797 -0.2320 3.1004 -8.5585 2.4380 0.6207 -3.7753 1.5360 0.6767 0.9246 0.2568 0.3738 3.0787 4.5269 2.0800 -10.4390 -1.8180 2.2990 4.1137 -1.2624 1.1501 3.2737 0.0000 0.0000 0.0000 -89.4780 7.8379 -104.9497 4.8864 -8.3927 -0.3587 -0.0000 -0.0000 97.3456 15.1829 46.3416 11.1077 -7.1250 0.0000 -0.0000 -42.5252 73.6789 -30.1984 0.0000 0.0000 0.0000 90.2883 21.1331 24.6448 -22.3302 33.3482 -6.7665 0.0000 -0.0000 -3.5886 -27.4514 35.3600 -16.7326 7.1250 -0.0000 -0.0000 3.0940 8.6176 3.5274
12.3538 15.9584 0.0182 671.3550 83.6745 674.6490 0.0000 0.0000 0.0000 -7.2644 -15.5917 -33.2191 1.8852 8.6228 24.6225 1.1574 2.8659 -21.5405 5.7939 14.2256 44.1490 0.0000 0.0000 0.0000 26.8415 -3.5397 17.6675 0.0000 -0.0000 0.0000 -0.6056 1.6867 -14.2194 -0.0907 1.9428 -5.3475 2.3364 0.7209 -3.7021 1.4721 0.8202 0.8661 0.2554 0.4425 2.9785 4.5149 2.1787 -10.2427 -1.8268 2.4414 4.1223 -1.2550 1.2207 3.2438 0.0000 0.0000 0.0000 -89.4149 8.8676 -110.8105 4.9998 -8.5841 -0.3755 -0.0000 -0.0000 101.9400 15.1985 45.6309 10.9901 -7.1250 0.0000 -0.0000 -40.6638 73.2069 -28.3825 0.0000 0.0000 0.0000 90.4385 21.4227 25.3974 -23.2197 34.3282 -7.2618 0.0000 -0.0000 -4.1388 -27.8182 35.2296 -16.9289 7.1250 -0.0000 -0.0000 2.8700 8.5835 3.2701
12.5549 15.9432 0.0063 673.6240 83.3105 676.9020 0.0000 0.0000 0.0000 -6.1599 -17.3725 -33.0014 1.7995 8.4353 24.0442 1.2085 3.4211 -22.2549 5.7323 14.1638 43.8976 0.0000 0.0000 0.0000 26.7895 -3.2751 18.6610 0.0000 -0.0000 0.0000 -0.6022 1.9188 -14.1277 -0.1214 2.2459 -6.1858 2.4391 0.8803 -3.6643 1.4867 1.0295 0.8583 0.2255 0.5484 2.9536 4.4958 2.1895 -10.2572 -1.9527 2.4661 4.1820 -1.2921 1.2275 3.2706 -0.0000 -0.0000 0.0000 -89.2766 9.5181 -116.4883 5.1424 -8.8245 -0.3971 -0.0000 -0.0000 106.7770 15.2285 45.2827 10.9482 -7.1250 0.0000 -0.0000 -39.7678 72.9772 -27.5211 -0.0000 -0.0000 0.0000 90.4102 21.7308 26.0151 -24.0031 35.1676 -7.7084 0.0000 -0.0000 -4.7844 -28.1471 35.2702 -17.1675 7.1250 -0.0000 -0.0000 2.7020 8.7155 3.0834
12.7617 15.9256 -0.0068 674.9750 82.9758 678.1400 0.0000 0.0000 0.0000 -5.2916 -18.7332 -32.7415 1.7400 8.3020 23.6353 1.2856 3.6794 -23.0277 5.7566 14.1883 43.9970 0.0000 0.0000 0.0000 26.7899 -3.1323 19.6992 0.0000 -0.0000 0.0000 -0.5812 1.7640 -13.9034 -0.2316 3.0977 -8.5508 2.5886 0.9914 -3.6392 1.5058 1.1701 0.9188 0.1707 0.6219 3.0067 4.4677 2.1786 -10.3140 -2.0266 2.4578 4.2688 -1.3122 1.2200 3.3125 -0.0000 -0.0000 0.0000 -89.2537 10.3419 -115.1988 5.1466 -8.8315 -0.3977 -0.0000 -0.0000 104.6550 14.9388 45.4807 10.7710 -7.1250 0.0000 -0.0000 -40.5541 73.0097 -28.1380 -0.0000 -0.0000 0.0000 90.3453 22.0616 26.6758 -24.6842 35.8794 -8.1041 0.0000 -0.0000 -5.5097 -28.1614 35.4544 -17.2506 7.1250 -0.0000 -0.0000 2.7334 8.9089 3.1271
12.9720 15.9098 -0.0205 676.6980 82.7807 679.7820 0.0000 0.0000 0.0000 -5.0335 -19.1852 -32.6641 1.6998 8.2106 23.3556 1.3452 3.3073 -23.3215 5.8148 14.2465 44.2340 0.0000 0.0000 0.0000 26.6529 -3.0124 20.6184 0.0000 0.0000 -0.0000 -0.5428 1.4580 -13.4906 -0.4372 4.2428 -11.7606 2.5273 1.0060 -3.6603 1.5296 1.1908 0.9290 0.2314 0.6312 3.0277 4.4207 2.2392 -10.1436 -2.0699 2.5550 4.1889 -1.3126 1.2657 3.2553 -0.0000 -0.0000 0.0000 -89.4903 11.5431 -111.1800 5.0404 -8.6525 -0.3816 -0.0000 -0.0000 99.6520 14.6569 45.7982 10.6194 -7.1250 0.0000 -0.0000 -41.6353 73.1238 -29.0504 -0.0000 -0.0000 0.0000 90.2754 22.4175 27.5409 -25.2714 36.4801 -8.4507 0.0000 -0.0000 -6.2218 -28.2922 35.5952 -17.3959 7.1250 -0.0000 -0.0000 2.6936 9.0899 3.0885
